<?xml version="1.0" encoding="UTF-8" standalone="no"?>
<!-- Generated by SVGo -->

<svg
   xmlns:dc="http://purl.org/dc/elements/1.1/"
   xmlns:cc="http://creativecommons.org/ns#"
   xmlns:rdf="http://www.w3.org/1999/02/22-rdf-syntax-ns#"
   xmlns:svg="http://www.w3.org/2000/svg"
   xmlns="http://www.w3.org/2000/svg"
   xmlns:sodipodi="http://sodipodi.sourceforge.net/DTD/sodipodi-0.dtd"
   xmlns:inkscape="http://www.inkscape.org/namespaces/inkscape"
   width="295.752mm"
   height="105.252mm"
   viewBox="0.000 0.000 295.752 105.252"
   version="1.1"
   id="svg1242"
   sodipodi:docname="66_MOR_plate(0_18mm_kerf).svg"
   inkscape:version="0.92.2 2405546, 2018-03-11">
  <metadata
     id="metadata1248">
    <rdf:RDF>
      <cc:Work
         rdf:about="">
        <dc:format>image/svg+xml</dc:format>
        <dc:type
           rdf:resource="http://purl.org/dc/dcmitype/StillImage" />
      </cc:Work>
    </rdf:RDF>
  </metadata>
  <defs
     id="defs1246" />
  <sodipodi:namedview
     pagecolor="#ffffff"
     bordercolor="#666666"
     borderopacity="1"
     objecttolerance="10"
     gridtolerance="10"
     guidetolerance="10"
     inkscape:pageopacity="0"
     inkscape:pageshadow="2"
     inkscape:window-width="1366"
     inkscape:window-height="700"
     id="namedview1244"
     showgrid="false"
     inkscape:zoom="0.55048947"
     inkscape:cx="541.46217"
     inkscape:cy="314.87166"
     inkscape:window-x="0"
     inkscape:window-y="22"
     inkscape:window-maximized="1"
     inkscape:current-layer="svg1242" />
  <polygon
     points="288.154,5.073 288.351,5.080 288.546,5.103 288.738,5.142 288.926,5.195 289.111,5.263 289.288,5.345 289.461,5.441 289.623,5.550 289.777,5.671 289.921,5.805 290.055,5.949 290.176,6.103 290.286,6.266 290.382,6.438 290.464,6.616 290.531,6.800 290.584,6.989 290.623,7.181 290.647,7.376 290.654,7.573 290.654,59.916 286.654,59.916 286.063,60.010 285.531,60.281 285.108,60.703 284.837,61.236 284.745,61.826 284.837,62.416 285.108,62.950 285.531,63.371 286.063,63.642 286.654,63.736 290.654,63.736 290.654,97.679 290.647,97.876 290.623,98.070 290.584,98.262 290.531,98.451 290.464,98.635 290.382,98.813 290.286,98.986 290.176,99.148 290.055,99.302 289.921,99.447 289.777,99.581 289.623,99.701 289.461,99.810 289.288,99.906 289.111,99.989 288.926,100.056 288.738,100.109 288.546,100.148 288.351,100.171 288.154,100.179 7.598,100.179 7.401,100.171 7.206,100.148 7.014,100.109 6.825,100.056 6.641,99.989 6.463,99.906 6.291,99.810 6.128,99.701 5.974,99.581 5.830,99.447 5.696,99.302 5.575,99.148 5.466,98.986 5.370,98.813 5.288,98.635 5.220,98.451 5.167,98.262 5.128,98.070 5.105,97.876 5.097,97.679 5.097,63.736 9.099,63.736 9.688,63.642 10.221,63.371 10.643,62.950 10.915,62.416 11.008,61.828 10.915,61.236 10.643,60.703 10.221,60.281 9.688,60.010 9.099,59.916 5.097,59.916 5.098,7.573 5.105,7.376 5.128,7.181 5.167,6.989 5.220,6.800 5.288,6.616 5.370,6.438 5.466,6.266 5.575,6.103 5.696,5.949 5.830,5.805 5.974,5.671 6.128,5.550 6.291,5.441 6.463,5.345 6.641,5.263 6.825,5.195 7.014,5.142 7.206,5.103 7.401,5.080 7.598,5.072"
     style="fill:none;stroke-width:0.050000mm;stroke:black"
     id="polygon1090" />
  <polygon
     points="11.579,84.415 11.579,97.035 26.998,97.035 26.998,84.415"
     style="fill:none;stroke-width:0.050000mm;stroke:black"
     id="polygon1100" />
  <polygon
     points="35.391,84.415 35.391,97.035 50.811,97.035 50.811,84.415"
     style="fill:none;stroke-width:0.050000mm;stroke:black"
     id="polygon1102" />
  <polygon
     points="54.441,84.415 54.441,97.035 69.861,97.035 69.861,84.415"
     style="fill:none;stroke-width:0.050000mm;stroke:black"
     id="polygon1104" />
  <polygon
     points="78.254,84.415 78.254,97.035 93.672,97.035 93.672,84.415"
     style="fill:none;stroke-width:0.050000mm;stroke:black"
     id="polygon1106" />
  <polygon
     points="113.972,84.415 113.972,97.035 129.392,97.035 129.392,84.415"
     style="fill:none;stroke-width:0.050000mm;stroke:black"
     id="polygon1108" />
  <polygon
     points="161.596,84.415 161.596,97.035 177.017,97.035 177.017,84.415"
     style="fill:none;stroke-width:0.050000mm;stroke:black"
     id="polygon1110" />
  <polygon
     points="202.078,84.415 202.078,97.035 217.499,97.035 217.499,84.415"
     style="fill:none;stroke-width:0.050000mm;stroke:black"
     id="polygon1112" />
  <polygon
     points="225.891,84.415 225.891,97.035 241.310,97.035 241.310,84.415"
     style="fill:none;stroke-width:0.050000mm;stroke:black"
     id="polygon1114" />
  <polygon
     points="244.941,84.415 244.941,97.035 260.361,97.035 260.361,84.415"
     style="fill:none;stroke-width:0.050000mm;stroke:black"
     id="polygon1116" />
  <polygon
     points="268.753,84.415 268.753,97.035 284.173,97.035 284.173,84.415"
     style="fill:none;stroke-width:0.050000mm;stroke:black"
     id="polygon1118" />
  <polygon
     points="195.286,88.709 194.754,88.980 194.331,89.403 194.060,89.935 193.966,90.526 194.060,91.117 194.331,91.648 194.754,92.072 195.286,92.343 195.876,92.436 196.466,92.343 196.999,92.072 197.422,91.648 197.692,91.117 197.786,90.526 197.692,89.935 197.422,89.403 196.999,88.980 196.466,88.709 195.876,88.617"
     style="fill:none;stroke-width:0.050000mm;stroke:black"
     id="polygon1120" />
  <polygon
     points="30.629,65.365 30.629,77.986 46.049,77.986 46.049,65.365"
     style="fill:none;stroke-width:0.050000mm;stroke:black"
     id="polygon1122" />
  <polygon
     points="49.678,65.365 49.678,77.986 65.099,77.986 65.099,65.365"
     style="fill:none;stroke-width:0.050000mm;stroke:black"
     id="polygon1124" />
  <polygon
     points="68.728,65.365 68.728,77.986 84.148,77.986 84.148,65.365"
     style="fill:none;stroke-width:0.050000mm;stroke:black"
     id="polygon1126" />
  <polygon
     points="87.779,65.365 87.779,77.986 103.198,77.986 103.198,65.365"
     style="fill:none;stroke-width:0.050000mm;stroke:black"
     id="polygon1128" />
  <polygon
     points="106.829,65.365 106.829,77.986 122.248,77.986 122.248,65.365"
     style="fill:none;stroke-width:0.050000mm;stroke:black"
     id="polygon1130" />
  <polygon
     points="125.879,65.365 125.879,77.986 141.298,77.986 141.298,65.365"
     style="fill:none;stroke-width:0.050000mm;stroke:black"
     id="polygon1132" />
  <polygon
     points="144.929,65.365 144.929,77.986 160.349,77.986 160.349,65.365"
     style="fill:none;stroke-width:0.050000mm;stroke:black"
     id="polygon1134" />
  <polygon
     points="163.978,65.365 163.978,77.986 179.399,77.986 179.399,65.365"
     style="fill:none;stroke-width:0.050000mm;stroke:black"
     id="polygon1136" />
  <polygon
     points="183.029,65.365 183.029,77.986 198.448,77.986 198.448,65.365"
     style="fill:none;stroke-width:0.050000mm;stroke:black"
     id="polygon1138" />
  <polygon
     points="202.078,65.365 202.078,77.986 217.499,77.986 217.499,65.365"
     style="fill:none;stroke-width:0.050000mm;stroke:black"
     id="polygon1140" />
  <polygon
     points="221.129,65.365 221.129,77.986 236.548,77.986 236.548,65.365"
     style="fill:none;stroke-width:0.050000mm;stroke:black"
     id="polygon1142" />
  <polygon
     points="247.322,65.365 247.322,77.986 262.741,77.986 262.741,65.365"
     style="fill:none;stroke-width:0.050000mm;stroke:black"
     id="polygon1144" />
  <polygon
     points="273.515,65.365 273.515,77.986 288.935,77.986 288.935,65.365"
     style="fill:none;stroke-width:0.050000mm;stroke:black"
     id="polygon1146" />
  <polygon
     points="9.197,65.365 9.197,77.986 24.617,77.986 24.617,65.365"
     style="fill:none;stroke-width:0.050000mm;stroke:black"
     id="polygon1148" />
  <polygon
     points="13.960,46.316 13.960,58.936 29.380,58.936 29.380,46.316"
     style="fill:none;stroke-width:0.050000mm;stroke:black"
     id="polygon1150" />
  <polygon
     points="40.154,46.316 40.154,58.936 55.574,58.936 55.574,46.316"
     style="fill:none;stroke-width:0.050000mm;stroke:black"
     id="polygon1152" />
  <polygon
     points="59.203,46.316 59.203,58.936 74.623,58.936 74.623,46.316"
     style="fill:none;stroke-width:0.050000mm;stroke:black"
     id="polygon1154" />
  <polygon
     points="78.254,46.316 78.254,58.936 93.672,58.936 93.672,46.316"
     style="fill:none;stroke-width:0.050000mm;stroke:black"
     id="polygon1156" />
  <polygon
     points="97.303,46.316 97.303,58.936 112.722,58.936 112.722,46.316"
     style="fill:none;stroke-width:0.050000mm;stroke:black"
     id="polygon1158" />
  <polygon
     points="116.353,46.316 116.353,58.936 131.773,58.936 131.773,53.242 132.030,53.748 132.453,54.171 132.986,54.442 133.577,54.537 134.167,54.442 134.698,54.171 135.121,53.748 135.393,53.216 135.403,53.153 135.403,58.936 150.823,58.936 150.823,46.316 135.403,46.316 135.403,52.099 135.393,52.035 135.121,51.504 134.698,51.081 134.167,50.809 133.577,50.716 132.986,50.809 132.453,51.081 132.030,51.504 131.773,52.010 131.773,46.316"
     style="fill:none;stroke-width:0.050000mm;stroke:black"
     id="polygon1160" />
  <polygon
     points="154.453,46.316 154.453,58.936 169.874,58.936 169.874,46.316"
     style="fill:none;stroke-width:0.050000mm;stroke:black"
     id="polygon1162" />
  <polygon
     points="173.504,46.316 173.504,58.936 188.923,58.936 188.923,46.316"
     style="fill:none;stroke-width:0.050000mm;stroke:black"
     id="polygon1164" />
  <polygon
     points="192.554,46.316 192.554,58.936 207.974,58.936 207.974,46.316"
     style="fill:none;stroke-width:0.050000mm;stroke:black"
     id="polygon1166" />
  <polygon
     points="211.603,46.316 211.603,58.936 227.024,58.936 227.024,46.316"
     style="fill:none;stroke-width:0.050000mm;stroke:black"
     id="polygon1168" />
  <polygon
     points="230.654,46.316 230.654,58.936 246.073,58.936 246.073,46.316"
     style="fill:none;stroke-width:0.050000mm;stroke:black"
     id="polygon1170" />
  <polygon
     points="249.703,46.316 249.703,58.936 265.123,58.936 265.123,46.316"
     style="fill:none;stroke-width:0.050000mm;stroke:black"
     id="polygon1172" />
  <polygon
     points="269.854,55.954 269.854,58.439 274.882,58.439 274.882,55.954"
     style="fill:none;stroke-width:0.050000mm;stroke:black"
     id="polygon1174" />
  <polygon
     points="272.534,35.391 272.534,50.811 285.154,50.811 285.154,35.391"
     style="fill:none;stroke-width:0.050000mm;stroke:black"
     id="polygon1176" />
  <polygon
     points="11.579,27.265 11.579,39.885 26.998,39.885 26.998,27.265"
     style="fill:none;stroke-width:0.050000mm;stroke:black"
     id="polygon1178" />
  <polygon
     points="35.391,27.265 35.391,39.885 50.811,39.885 50.811,27.265"
     style="fill:none;stroke-width:0.050000mm;stroke:black"
     id="polygon1180" />
  <polygon
     points="54.441,27.265 54.441,39.885 69.861,39.885 69.861,27.265"
     style="fill:none;stroke-width:0.050000mm;stroke:black"
     id="polygon1182" />
  <polygon
     points="73.490,27.265 73.490,39.885 88.910,39.885 88.910,27.265"
     style="fill:none;stroke-width:0.050000mm;stroke:black"
     id="polygon1184" />
  <polygon
     points="92.540,27.265 92.540,39.885 107.960,39.885 107.960,27.265"
     style="fill:none;stroke-width:0.050000mm;stroke:black"
     id="polygon1186" />
  <polygon
     points="111.591,27.265 111.591,39.885 127.011,39.885 127.011,27.265"
     style="fill:none;stroke-width:0.050000mm;stroke:black"
     id="polygon1188" />
  <polygon
     points="130.641,27.265 130.641,39.885 146.060,39.885 146.060,27.265"
     style="fill:none;stroke-width:0.050000mm;stroke:black"
     id="polygon1190" />
  <polygon
     points="149.691,27.265 149.691,39.885 165.111,39.885 165.111,27.265"
     style="fill:none;stroke-width:0.050000mm;stroke:black"
     id="polygon1192" />
  <polygon
     points="168.740,27.265 168.740,39.885 184.161,39.885 184.161,27.265"
     style="fill:none;stroke-width:0.050000mm;stroke:black"
     id="polygon1194" />
  <polygon
     points="187.791,27.265 187.791,39.885 203.210,39.885 203.210,27.265"
     style="fill:none;stroke-width:0.050000mm;stroke:black"
     id="polygon1196" />
  <polygon
     points="206.840,27.265 206.840,39.885 222.261,39.885 222.261,27.265"
     style="fill:none;stroke-width:0.050000mm;stroke:black"
     id="polygon1198" />
  <polygon
     points="225.891,27.265 225.891,39.885 241.310,39.885 241.310,27.265"
     style="fill:none;stroke-width:0.050000mm;stroke:black"
     id="polygon1200" />
  <polygon
     points="244.941,27.265 244.941,39.885 260.361,39.885 260.361,27.265"
     style="fill:none;stroke-width:0.050000mm;stroke:black"
     id="polygon1202" />
  <polygon
     points="29.986,31.409 29.453,31.680 29.030,32.103 28.760,32.635 28.666,33.227 28.760,33.817 29.030,34.349 29.453,34.772 29.986,35.043 30.577,35.135 31.166,35.043 31.699,34.772 32.122,34.349 32.392,33.817 32.486,33.227 32.392,32.635 32.122,32.103 31.699,31.680 31.166,31.409 30.577,31.316"
     style="fill:none;stroke-width:0.050000mm;stroke:black"
     id="polygon1204" />
  <polygon
     points="264.836,31.409 264.303,31.680 263.880,32.103 263.610,32.635 263.517,33.227 263.610,33.817 263.880,34.349 264.303,34.772 264.836,35.043 265.426,35.135 266.017,35.043 266.548,34.772 266.971,34.349 267.243,33.817 267.337,33.227 267.243,32.635 266.971,32.103 266.548,31.680 266.017,31.409 265.426,31.316"
     style="fill:none;stroke-width:0.050000mm;stroke:black"
     id="polygon1206" />
  <polygon
     points="269.854,27.761 269.854,30.247 274.882,30.247 274.882,27.761"
     style="fill:none;stroke-width:0.050000mm;stroke:black"
     id="polygon1208" />
  <polygon
     points="256.361,18.488 256.361,23.515 258.848,23.515 258.848,18.488"
     style="fill:none;stroke-width:0.050000mm;stroke:black"
     id="polygon1210" />
  <polygon
     points="284.553,18.488 284.553,23.515 287.039,23.515 287.039,18.488"
     style="fill:none;stroke-width:0.050000mm;stroke:black"
     id="polygon1212" />
  <polygon
     points="6.815,8.214 6.815,20.835 22.236,20.835 22.236,8.214"
     style="fill:none;stroke-width:0.050000mm;stroke:black"
     id="polygon1214" />
  <polygon
     points="25.865,8.214 25.865,20.835 41.285,20.835 41.285,8.214"
     style="fill:none;stroke-width:0.050000mm;stroke:black"
     id="polygon1216" />
  <polygon
     points="44.916,8.214 44.916,20.835 60.336,20.835 60.336,8.214"
     style="fill:none;stroke-width:0.050000mm;stroke:black"
     id="polygon1218" />
  <polygon
     points="63.965,8.214 63.965,20.835 79.386,20.835 79.386,8.214"
     style="fill:none;stroke-width:0.050000mm;stroke:black"
     id="polygon1220" />
  <polygon
     points="83.016,8.214 83.016,20.835 98.436,20.835 98.436,8.214"
     style="fill:none;stroke-width:0.050000mm;stroke:black"
     id="polygon1222" />
  <polygon
     points="102.066,8.214 102.066,20.835 117.486,20.835 117.486,8.214"
     style="fill:none;stroke-width:0.050000mm;stroke:black"
     id="polygon1224" />
  <polygon
     points="121.115,8.214 121.115,20.835 136.536,20.835 136.536,8.214"
     style="fill:none;stroke-width:0.050000mm;stroke:black"
     id="polygon1226" />
  <polygon
     points="140.166,8.214 140.166,20.835 155.585,20.835 155.585,8.214"
     style="fill:none;stroke-width:0.050000mm;stroke:black"
     id="polygon1228" />
  <polygon
     points="159.215,8.214 159.215,20.835 174.636,20.835 174.636,8.214"
     style="fill:none;stroke-width:0.050000mm;stroke:black"
     id="polygon1230" />
  <polygon
     points="178.266,8.214 178.266,20.835 193.685,20.835 193.685,8.214"
     style="fill:none;stroke-width:0.050000mm;stroke:black"
     id="polygon1232" />
  <polygon
     points="197.316,8.214 197.316,20.835 212.736,20.835 212.736,8.214"
     style="fill:none;stroke-width:0.050000mm;stroke:black"
     id="polygon1234" />
  <polygon
     points="216.365,8.214 216.365,20.835 231.786,20.835 231.786,8.214"
     style="fill:none;stroke-width:0.050000mm;stroke:black"
     id="polygon1236" />
  <polygon
     points="235.416,8.214 235.416,20.835 250.835,20.835 250.835,8.214"
     style="fill:none;stroke-width:0.050000mm;stroke:black"
     id="polygon1238" />
  <polygon
     points="263.990,8.214 263.990,20.835 279.411,20.835 279.411,8.214"
     style="fill:none;stroke-width:0.050000mm;stroke:black"
     id="polygon1240" />
  <polygon
     transform="matrix(1,0,0,-1,0,181.45)"
     points="106.343,99.715 108.829,99.715 108.829,94.688 106.343,94.688 "
     style="fill:none;stroke:#000000;stroke-width:0.05mm"
     id="polygon1092-6" />
  <polygon
     transform="matrix(1,0,0,-1,0,181.45)"
     points="134.535,99.715 137.02,99.715 137.02,94.688 134.535,94.688 "
     style="fill:none;stroke:#000000;stroke-width:0.05mm"
     id="polygon1094-2" />
  <polygon
     transform="matrix(1,0,0,-1,0,181.45)"
     points="153.968,99.715 156.453,99.715 156.453,94.688 153.968,94.688 "
     style="fill:none;stroke:#000000;stroke-width:0.05mm"
     id="polygon1096-9" />
  <polygon
     transform="matrix(1,0,0,-1,0,181.45)"
     points="182.16,99.715 184.645,99.715 184.645,94.688 182.16,94.688 "
     style="fill:none;stroke:#000000;stroke-width:0.05mm"
     id="polygon1098-1" />
</svg>
